<?xml version="1.0" encoding="UTF-8"?><svg xmlns="http://www.w3.org/2000/svg" xmlns:xlink="http://www.w3.org/1999/xlink" viewBox="0 0 1920 1043.48"><defs><style>.cls-1,.cls-2,.cls-3,.cls-4,.cls-5,.cls-6,.cls-7{fill:none;}.cls-8,.cls-9,.cls-10{font-family:Lato-Light, Lato;}.cls-11{clip-path:url(#clippath);}.cls-12{letter-spacing:0em;}.cls-12,.cls-13,.cls-14,.cls-15,.cls-16,.cls-17,.cls-18{font-family:Lato-Medium, Lato;}.cls-13{letter-spacing:0em;}.cls-19{fill:#d9d1bd;}.cls-20{fill:#968f7d;}.cls-21{fill:#7c7563;}.cls-14{letter-spacing:-.04em;}.cls-22{fill:#c0bb68;stroke-width:2px;}.cls-22,.cls-2,.cls-3,.cls-4,.cls-5,.cls-6,.cls-7{stroke-miterlimit:10;}.cls-22,.cls-2,.cls-3,.cls-4,.cls-6{stroke:#968f7d;}.cls-2{stroke-dasharray:0 0 15.16 15.16;}.cls-2,.cls-3,.cls-4,.cls-6{stroke-width:5px;}.cls-4{stroke-dasharray:0 0 12.66 12.66;}.cls-15{letter-spacing:0em;}.cls-9{letter-spacing:-.05em;}.cls-17{letter-spacing:0em;}.cls-5{stroke:#7c7563;stroke-width:4px;}.cls-23{fill:url(#New_Pattern_2);}.cls-23,.cls-24{mix-blend-mode:multiply;opacity:.05;}.cls-25{fill:#fff;font-size:25.69px;}.cls-24{fill:#c1bcb2;}.cls-26{isolation:isolate;}.cls-18{letter-spacing:-.01em;}.cls-6{stroke-dasharray:0 0 14.82 14.82;}.cls-7{stroke:#010101;stroke-width:.25px;}.cls-10{letter-spacing:-.02em;}</style><pattern id="New_Pattern_2" x="0" y="0" width="15.13" height="15.13" patternTransform="translate(24648.9 14437.42) scale(4.42 2.88)" patternUnits="userSpaceOnUse" viewBox="0 0 15.13 15.13"><g><rect class="cls-1" width="15.12" height="15.12"/><g><rect class="cls-7" x="15.12" y="15.12" width="15.13" height="15.13"/><line class="cls-7" x1="15.12" y1="15.12" x2="15.12" y2="30.25"/><line class="cls-7" x1="15.12" y1="15.12" x2="30.25" y2="15.12"/></g><g><rect class="cls-7" x="0" y="15.12" width="15.13" height="15.13"/><line class="cls-7" x1="7.56" y1="15.12" x2="7.56" y2="30.25"/><line class="cls-7" x1="11.34" y1="15.12" x2="11.34" y2="30.25"/><line class="cls-7" x1="15.13" y1="15.12" x2="15.13" y2="30.25"/><line class="cls-7" x1="3.78" y1="15.12" x2="3.78" y2="30.25"/><line class="cls-7" x1="0" y1="15.12" x2="0" y2="30.25"/><line class="cls-7" x1="0" y1="15.12" x2="15.13" y2="15.12"/></g><g><rect class="cls-7" x="-15.13" y="15.12" width="15.13" height="15.13"/><line class="cls-7" x1="0" y1="15.12" x2="0" y2="30.25"/><line class="cls-7" x1="-15.13" y1="15.12" x2="0" y2="15.12"/></g><g><rect class="cls-7" x="15.12" y="0" width="15.13" height="15.13"/><line class="cls-7" x1="15.12" y1="0" x2="15.12" y2="15.13"/><line class="cls-7" x1="15.12" y1="7.56" x2="30.25" y2="7.56"/><line class="cls-7" x1="15.12" y1="3.78" x2="30.25" y2="3.78"/><line class="cls-7" x1="15.12" y1="0" x2="30.25" y2="0"/><line class="cls-7" x1="15.12" y1="11.34" x2="30.25" y2="11.34"/><line class="cls-7" x1="15.12" y1="15.13" x2="30.25" y2="15.13"/></g><g><rect class="cls-7" x="0" y="0" width="15.13" height="15.13"/><line class="cls-7" x1="7.56" y1="0" x2="7.56" y2="15.13"/><line class="cls-7" x1="11.34" y1="0" x2="11.34" y2="15.13"/><line class="cls-7" x1="15.13" y1="0" x2="15.13" y2="15.13"/><line class="cls-7" x1="3.78" y1="0" x2="3.78" y2="15.13"/><line class="cls-7" x1="0" y1="0" x2="0" y2="15.13"/><line class="cls-7" x1="0" y1="7.56" x2="15.13" y2="7.56"/><line class="cls-7" x1="0" y1="3.78" x2="15.13" y2="3.78"/><line class="cls-7" x1="0" y1="0" x2="15.13" y2="0"/><line class="cls-7" x1="0" y1="11.34" x2="15.13" y2="11.34"/><line class="cls-7" x1="0" y1="15.13" x2="15.13" y2="15.13"/></g><g><rect class="cls-7" x="-15.13" y="0" width="15.13" height="15.13"/><line class="cls-7" x1="0" y1="0" x2="0" y2="15.13"/><line class="cls-7" x1="-15.13" y1="7.56" x2="0" y2="7.56"/><line class="cls-7" x1="-15.13" y1="3.78" x2="0" y2="3.78"/><line class="cls-7" x1="-15.13" y1="0" x2="0" y2="0"/><line class="cls-7" x1="-15.13" y1="11.34" x2="0" y2="11.34"/><line class="cls-7" x1="-15.13" y1="15.13" x2="0" y2="15.13"/></g><g><rect class="cls-7" x="15.12" y="-15.13" width="15.13" height="15.13"/><line class="cls-7" x1="15.12" y1="-15.13" x2="15.12" y2="0"/><line class="cls-7" x1="15.12" y1="0" x2="30.25" y2="0"/></g><g><rect class="cls-7" x="0" y="-15.13" width="15.13" height="15.13"/><line class="cls-7" x1="7.56" y1="-15.13" x2="7.56" y2="0"/><line class="cls-7" x1="11.34" y1="-15.13" x2="11.34" y2="0"/><line class="cls-7" x1="15.13" y1="-15.13" x2="15.13" y2="0"/><line class="cls-7" x1="3.78" y1="-15.13" x2="3.78" y2="0"/><line class="cls-7" x1="0" y1="-15.13" x2="0" y2="0"/><line class="cls-7" x1="0" y1="0" x2="15.13" y2="0"/></g><g><rect class="cls-7" x="-15.13" y="-15.13" width="15.13" height="15.13"/><line class="cls-7" x1="0" y1="-15.13" x2="0" y2="0"/><line class="cls-7" x1="-15.13" y1="0" x2="0" y2="0"/></g></g></pattern><clipPath id="clippath"><rect class="cls-1" width="1920" height="1043.48"/></clipPath></defs><g class="cls-26"><g id="Layer_1"><g><rect class="cls-19" width="1920" height="1043.48"/><rect class="cls-23" width="1920" height="1043.48"/><g class="cls-11"><g><path class="cls-22" d="M2637.57-5.19c7.4,8.46,4.58,27.14-5.64,32.78-7.05,3.88-16.21-3.17-21.15,3.88-16.57,24.67,49,36.31,55.69,46.88,4.58,8.11-2.47,24.68,1.76,34.9,7.75,20.44,34.19,27.14,43,46.18,3.17,6.7,5.64,15.51,6.7,25.03,4.58,29.26,.7,66.27-14.8,84.25-24.32,28.9-27.85,32.43-.7,65.56,10.93,13.04,28.55,26.09,28.9,44.77,0,13.04-12.69,25.38-11.99,37.72,1.06,17.63,19.74,35.6,22.21,55.34,2.47,17.27-2.82,28.9-7.05,44.77-7.75,31.37,15.51,54.64,30.31,81.07,5.64,10.22,13.04,24.67,14.45,36.66,2.12,16.92-9.87,25.38-11.63,41.24v1.06c-1.76,21.85,13.39,46.88-23.97,42.3-17.62-2.11-13.4-8.11-20.09-20.8-7.75-14.1-22.21-17.98-37.01-22.56-4.58,29.61-1.76,28.2-32.78,36.31-10.93,2.82-23.97,4.94-34.19,9.52-11.99,5.29-20.45,15.51-32.08,20.8-19.03,8.46-37.72-1.41-54.99,3.53-10.58,3.17-19.74,22.91-31.73,8.11-20.8-.35-45.12,15.86-59.22,29.96-8.81,8.81-9.17,10.57-20.8,14.45-9.16,2.82-22.56,3.17-29.26,10.93-15.86,17.98,3.88,45.47,13.39,62.04,14.1,25.38,17.62,39.48,17.62,68.74-.35,57.81,62.04,40.89,86.01,77.9,8.11,12.34,15.51,25.03,23.26,37.36h.35c4.23,6.7,8.46,13.39,13.04,20.09,8.11,11.63,15.16,26.44,25.73,36.31,7.05,7.05,13.04,7.05,13.39,17.98,.35,23.97-41.24,27.49-54.99,41.59-7.4,8.11-7.75,17.98-13.75,26.79-8.46,13.04-15.16,13.39-29.61,18.33-8.11,2.82-29.26,8.11-34.19,16.57-5.64,9.87,4.58,28.55,8.11,38.42,3.88,10.22,7.75,20.44,8.81,31.72,1.41,13.39-3.53,17.98-5.99,28.9-2.47,11.99,5.64,28.2-11.98,27.85-9.87-.35-18.68-14.45-25.03-19.74-18.33-15.51-38.77-8.11-57.81-19.74-14.1-8.46-11.98-9.16-30.31-4.23-13.75,3.88-26.08,7.05-40.54,7.05-29.26,.35-49.7,12.69-78.25,17.63-25.38,4.23-50.76,6.35-71.56-9.52-16.57-12.34-31.72-33.84-48.29-14.1-11.63,14.1-23.97,41.59-46.88,37.72-23.26-4.23-27.14-42.3-56.75-47.94-3.88-.7-7.4-1.06-10.93-.7-4.23-9.16-12.69-16.21-24.67-22.56-15.86-8.46-35.6-19.74-53.22-22.56-8.46-1.41-17.63,1.06-26.09-.7-13.75-3.17-35.95-29.26-51.11-13.39-9.52,9.87,7.75,16.21,3.88,27.14-3.17,8.46-14.45,6.35-22.56,5.99-25.73-.7-50.76-11.63-76.49-11.28-16.57,.35-29.96,.7-41.95-6.35,0-.35,.35-1.06,.35-1.41,3.17-13.75,3.52-26.79,5.64-40.89,2.12-16.92,17.63-28.55,16.22-44.77-.7-8.81,31.37-15.16,38.07-23.26,8.46-10.57,9.52-27.49,16.57-39.12,16.57-27.49,39.83-49,54.28-78.6,3.52-7.05,13.75-25.03,8.81-32.78-3.52-5.29-13.39-3.88-18.68-5.29-7.05-1.76-12.34-5.29-18.33-8.46-11.28-5.29-23.26-8.81-34.19-14.8-8.46-4.93-15.51-11.63-24.32-15.51-17.62-7.4-36.66-4.58-54.28-11.63-14.81-6.34-22.91-10.22-39.48-10.22-25.38,0-31.02-10.58-39.83-33.84-4.94-13.75-14.8-43.36-33.84-43.36-7.4,0-13.75,6.35-21.85,6.7-8.46,.35-15.86-2.82-23.62-5.29-2.82-.7-5.29-1.76-7.75-2.82,1.06-3.17,2.47-6.35,3.88-9.17,11.28-21.15,36.31-14.8,48.29-30.31,22.56-29.61-68.38-65.56-4.23-77.19,35.95-6.7,59.22-36.66,52.17-74.02-3.88-20.09-12.69-35.95-22.56-51.82-9.16-15.16-8.81-27.14-11.63-41.95,9.87-9.52,19.39-19.39,27.14-30.67,18.68-26.79,25.38-54.64,22.56-87.42-1.06-10.57-7.75-29.61-2.82-39.48,4.58-9.52,7.4-6.7,17.27-7.4,29.61-2.12,54.63-2.12,77.9-25.73,14.1-14.45,26.09-43,21.5-63.45-3.53-14.1-23.62-30.67-11.63-45.82,4.58-5.29,16.92-6.7,23.26-10.22,13.04-6.35,21.5-16.57,30.31-28.2,13.39-17.63,15.86-37.01,8.46-57.46-1.06-3.17-2.11-6.34-3.53-9.87v-.35c4.23-.71,7.4-2.82,9.17-8.46,5.64-17.62-16.57-28.9-14.8-45.12,.7-8.46,11.28-10.57,13.04-18.33,2.11-8.11-6.7-12.69-5.29-19.74,2.82-11.63,26.79-6.7,40.54-6.7,14.45,0,45.12-6.7,57.46,0,12.34,7.05,10.93,32.43,15.86,44.06,5.99,13.04,17.98,23.26,33.49,19.04,19.04-4.94,12.69-29.96,21.5-44.77,18.33-32.07,74.73,3.53,89.53-20.09,5.99-9.16-9.52-29.26-9.52-39.83-.35-19.39,.7-22.91-13.04-37.01-11.28-11.28-32.07-24.67-2.82-31.72,6.35-1.41,18.33,3.17,23.26-1.41,7.75-7.05,.71-23.62-3.17-31.37-7.05-12.69-19.39-20.8-22.21-35.25-1.76-7.75-1.76-14.45,0-19.74,3.88-13.75,17.62-19.04,37.72-15.86,26.08,4.23,44.06,25.38,70.5,28.55,5.64,.71,10.57,1.06,14.8,1.76,16.57,2.82,23.97,8.46,18.68,32.78-4.23,21.15-5.29,31.37,20.8,38.42,10.22,2.82,21.85,2.82,30.31,9.16,5.29,3.88,7.05,12.34,12.34,15.86,14.1,8.81,32.08-2.82,48.29,.35,10.93,2.11,39.48,15.86,39.83,25.38,0,23.97-43,27.85-44.77,49.7-2.11,27.49,26.09,9.17,41.59,8.46,8.11-.35,14.1,4.58,21.5,4.58,17.62,.35,23.26-10.58,34.19-23.26,25.03-29.96,43.36-11.99,77.2-16.22,25.73-3.52,41.59-31.02,68.03-29.96,23.97,1.06,40.89,20.8,44.77-16.21,.7-7.4-3.17-21.5,1.41-27.49,6.7-8.81,34.19-7.75,43-2.11,12.34,8.11,3.88,11.98,8.81,23.62,4.94,11.98,16.57,8.46,23.27,16.92Z"/><path class="cls-22" d="M1456.74,178.46c4.23-7.05,11.63-4.23,18.33-8.11,9.17-4.94,5.99-2.11,7.4-13.04,2.11-15.86-7.75-22.56,8.81-28.2,15.16-5.29,25.38-1.76,35.95-16.21,8.11-11.63,10.93-22.56,26.09-27.85,10.93-3.53,22.56-.7,33.84-1.76,15.16-1.06,29.26-5.99,44.06-8.46,14.45-2.47,83.89-1.76,74.02,23.26-4.58,12.69-28.55,6.7-39.12,3.88-16.21-4.58-29.61-5.99-46.18-5.29-18.68,.7-37.01,8.46-53.22,17.62-15.51,8.81-11.63,19.74-22.21,29.26-14.1,12.69-35.25,0-43.36,21.85-11.63,31.37,21.85,22.91,29.96,40.18,2.82,5.64,3.17,16.21,5.64,22.56,3.17,8.11,9.16,14.8,0,24.32-4.94,4.94-13.75,2.47-17.62,6.7-4.58,5.64-1.76,12.69-8.46,14.45-17.27,0-78.6-10.93-72.61-33.84,1.76-6.35,8.46-6.7,11.28-11.99,2.82-4.58,4.23-11.98,5.29-17.62,1.06-7.75-2.12-25.03,2.11-31.72Z"/><path class="cls-22" d="M1372.85,370.92c-1.41-1.76-3.53-2.47-2.11-5.29,1.41-3.17,8.11-1.76,10.93-1.06,9.17,1.76,9.52,10.93,15.86,16.21,4.23,3.88,7.75,3.17,12.69,2.12,4.93-1.06,11.63,0,12.69,5.99,.35,2.11,0,4.58-1.76,5.64-2.12,1.76-4.23,0-4.94,2.82-.7,4.94,6.35,10.22-2.11,11.63-5.64,1.06-8.81-1.76-13.75-3.52-6.34-2.12-13.39,.35-19.74-1.41,0-3.53,0-7.05-.7-10.58-1.76-5.64-3.88-11.28-5.64-17.27,0-2.47-.35-3.52-1.41-5.29Z"/><path class="cls-22" d="M1345,395.24c5.29,1.41,11.63,.7,17.62,1.06,3.88,19.39-17.62,14.1-26.44,20.8-5.64,4.58-4.23,13.39-10.57,18.68-3.88,3.17-12.34,3.52-14.45,3.17-14.45,0-31.02-7.75-35.6-20.8-7.75-23.26,10.22-14.8,24.67-14.1,9.52,.7,7.75,3.17,14.45-4.94,3.17-3.53,4.58-14.1,9.16-14.8,4.93-1.06,15.16,9.16,21.15,10.93Z"/><path class="cls-22" d="M1394.35,463.27c-15.86,6.7-11.63,30.31-28.9,37.36-23.26,9.52-63.8-6.7-84.24-15.86-6.7-3.17-14.1-8.11-21.5-12.34,4.94-2.47,10.22-4.94,16.21-6.7,11.63-2.82,23.97,2.47,35.25,1.41,14.1-1.41,16.21-9.16,24.67-17.62,11.28-11.99,16.92-12.34,32.78-13.39,26.79-1.41,48.29-17.62,78.25-13.39,14.8,2.47,61.33,20.09,71.2-1.06,15.16-31.72-46.88-23.62-58.16-27.14-15.86-5.29-13.75-26.79-27.49-33.84-13.04-6.7-34.19,5.99-44.41-11.63-8.11-13.75,2.12-33.84,14.1-41.24,6.7-4.58,14.1-3.52,20.8-5.99,11.28-4.58,9.52-9.87,18.33-16.21,19.03-14.45,58.51,26.08,81.78,29.61,23.97,3.88,34.19-3.88,53.93-15.86,9.52-5.64,52.17-10.93,41.24-31.37-7.75-14.45-31.37,17.63-43,22.21-14.8,5.29-39.83,9.52-55.69,8.46-2.82-42.65,40.89-24.67,61.33-49.35,3.53-4.23,10.58-23.97,10.93-27.85,.71-16.21-15.51-13.75-22.91-26.08-8.11-13.39,1.06-17.98,8.46-27.85,7.4-9.87,9.16-24.68,17.62-34.54,13.75-15.86,51.82-8.81,72.26-12.69,13.04-2.82,24.32,1.06,37.72,1.41,13.39,.35,25.38-4.94,38.77-4.23,27.49,1.06,40.18,25.73,48.64,49.35v.35c1.41,3.53,2.47,6.7,3.53,9.87,7.4,20.44,4.94,39.83-8.46,57.46-8.81,11.63-17.27,21.85-30.31,28.2-6.35,3.53-18.68,4.94-23.26,10.22-11.99,15.16,8.11,31.72,11.63,45.82,4.58,20.44-7.4,49-21.5,63.45-23.26,23.62-48.29,23.62-77.9,25.73-9.87,.7-12.69-2.12-17.27,7.4-4.94,9.87,1.76,28.9,2.82,39.48,2.82,32.78-3.88,60.63-22.56,87.42-7.75,11.28-17.27,21.15-27.14,30.67-.35-2.82-1.06-5.99-1.76-9.16-9.16-35.6-41.95-27.14-63.8-47.23-10.93-10.22-9.87-25.03-23.62-32.78-13.04-7.4-35.25-8.46-49.7-14.45-12.34-4.94-34.9-12.34-48.64-5.99Z"/><path class="cls-22" d="M1396.82,727.63c-16.92-5.29-29.61,22.21-45.47,14.1-14.1-7.4-13.75-36.31-16.92-49.35-3.52-13.75-9.87-27.85-22.56-34.19-7.05-3.53-16.92-4.58-23.26-9.52-5.99-4.94-7.05-13.75-13.39-17.98-6.7-4.58-18.68-4.58-26.44-8.11-6.34-2.82-13.04-6.34-18.33-10.93-11.63-9.17-17.62-21.5-23.26-34.54-5.29-12.34-7.75-19.04-22.21-20.44-16.57-1.76-25.02-5.64-27.85-24.32-1.41-9.87,4.58-26.44-.7-35.25-1.06-1.76-2.82-3.17-4.58-3.88,14.8-8.81,32.78-11.99,50.41-16.92,11.63-2.82,24.67-13.39,37.01-11.99,6.7,.7,13.75,4.23,20.44,8.11,7.4,4.23,14.8,9.16,21.5,12.34,20.44,9.16,60.98,25.38,84.24,15.86,17.27-7.05,13.04-30.67,28.9-37.36,13.75-6.34,36.31,1.06,48.64,5.99,14.45,5.99,36.66,7.05,49.7,14.45,13.75,7.75,12.69,22.56,23.62,32.78,21.85,20.09,54.64,11.63,63.8,47.23,.71,3.17,1.41,6.35,1.76,9.16,2.82,14.8,2.47,26.79,11.63,41.95,9.87,15.86,18.68,31.73,22.56,51.82,7.05,37.36-16.21,67.32-52.17,74.02-64.15,11.63,26.79,47.58,4.23,77.19-11.99,15.51-37.01,9.17-48.29,30.31-1.41,2.82-2.82,5.99-3.88,9.17-18.68-6.7-32.08-16.57-48.64-31.73-16.21-14.45-35.6-26.08-45.47-46.17-4.94-9.16-10.58-19.04-13.4-28.9-2.82-10.22-1.41-19.74-11.63-22.91Z"/><path class="cls-22" d="M112.35,436.83c54.28-5.64,76.84-33.84,106.8-73.67,12.69-16.92,23.97-26.44,43-33.49,10.57-3.88,22.56,0,34.19-4.58,13.04-5.64,20.44-18.68,32.78-24.67,48.29-23.62,86.71,25.38,135,8.11,20.8-7.4,29.96-32.07,47.94-45.82,18.33-13.75,47.58-20.44,3.52-25.73-23.62-2.47-46.88,14.1-72.97,10.93-30.67-3.88-39.48-15.86-58.16-39.48-28.55-35.6-59.22-48.64-107.86-46.18-34.9,1.76-39.12,2.47-43-35.95-3.17-32.78,1.76-41.95,32.43-52.52,61.33-21.15,137.12-9.87,142.05-96.93,2.12-34.9-41.24-57.1-37.36-80.72,1.76-10.22,22.56-14.8,27.14-29.26,3.52-12.34-11.63-35.95-3.17-46.88,20.09-26.44,81.42,13.39,98.7,24.32,34.9,22.56,61.68,26.09,103.28,24.68,9.16-24.68,1.41-51.82,15.86-75.79,14.1-22.21,40.89-26.08,29.26-59.57-8.11-22.56-35.95-31.02-45.82-53.93-7.75-18.68-9.87-51.81-1.06-71.2,9.87-21.5,49.35-32.08,20.8-59.92-14.8-14.45-52.17-7.75-70.5-7.75-41.95,0-121.61,5.29-98.34-61.33,16.21-46.88,66.27-97.64,53.22-152.27-46.18-11.28-109.98,136.06-131.13,58.16-7.75-28.9,7.4-48.29,27.14-65.56,32.78-28.55,37.72-31.02,30.31-77.2-7.4-46.88-62.39-101.52-31.37-149.1,17.98-27.49,45.12-26.79,49.35-65.56,3.52-33.84-37.36-74.73,3.52-92,39.13-16.57,58.86,45.47,98.35,28.2,35.25-15.16,22.91-77.55,62.04-90.59,25.03-30.31,19.03-79.31,68.03-78.6,22.21,.35,41.59,17.62,64.15,23.26,23.26,5.64,45.12,4.93,69.79,5.29,53.93,.35,88.47,34.9,26.79,71.2-37.36,21.85-102.22,30.67-114.56,78.6-23.62,91.65,173.07,17.27,204.44,86.36,26.09,57.1-31.72,112.8-67.68,145.58-19.74,17.98-46.88,41.95-61.68,62.74-10.93,15.51-8.11,13.75-14.8,34.54-5.64,17.27-7.05,35.6-22.21,45.47-17.98,11.63-70.85-14.45-52.52,31.73,11.28,28.2,81.07,35.95,104.33,49.7,70.5,41.95,35.25,102.22,38.78,167.78,1.41,29.26,17.62,68.03,33.84,92,19.39,28.2,53.58,41.95,69.79,72.96,27.5,52.87-8.81,105.04-3.88,160.38,3.17,30.31,21.15,56.05,14.45,88.83-3.53,16.92-35.25,54.64-17.98,71.91,7.75,7.75,66.27,3.52,80.37,7.4,38.77,10.93,54.63,20.44,59.22,59.22,3.88,37.01-5.64,87.77-32.78,115.97-31.37,32.08-106.8,26.44-129.01,67.33-32.43,59.22,89.18,96.93,1.76,138.53-93.06,44.41-179.06-35.6-265.07-31.02-41.59,2.12-86.01,24.32-129.01,14.1-31.02-7.4-32.08-32.08-62.39-39.12-16.21-3.88-49.7-3.88-65.91-.35-29.26,6.35-25.03,15.16-42.65,35.95-32.43,38.77-29.61,5.64-64.86-9.87-60.27-26.79-89.53,35.95-143.46,38.42-20.8,1.06-54.64-13.04-41.24-43Z"/><path class="cls-22" d="M45.73-532.16c-1.76-14.8-27.85-27.85-27.14-44.06,.35-17.98,27.49-16.92,39.13-30.67,16.92-20.09,11.63-35.25,45.82-39.48,24.32-3.17,40.54,11.63,62.74,12.34,23.62,.7,38.77-14.1,59.22,1.06,9.87,7.4,16.21,17.98,22.91,28.2-13.04,.7-25.03,4.93-42.3,17.27-12.69,9.16-23.62,15.16-38.77,19.39-14.1,4.23-35.25,3.88-46.88,13.39-15.86,12.69-2.47,24.68-9.87,39.13-8.11,15.16-31.37,14.45-44.41,23.26-.35,14.8,10.22,29.26,14.8,43,6.7,21.5,9.16,41.24,33.49,46.17,33.49,7.4,77.2-54.99,94.11-13.39,8.11,19.39,15.51,39.83,29.96,53.58-3.88,13.75-6.7,29.61-8.11,37.01-4.23,21.15,3.88,25.73,11.98,44.41,15.86,34.9,5.29,78.96-10.57,111.74-18.68,38.42-31.72,80.37-51.46,118.09C165.57-22.81,145.84,2.57,112,.45,71.46-2.37,35.86-19.64-4.32-5.89-44.51,8.21-83.63,20.19-126.28,26.54c-36.31,5.29-75.79,3.88-111.39-3.17-14.45-2.47-33.49,.35-46.88-5.29-22.56-8.81-11.28-19.74-18.68-35.95-10.93-23.97-61.69-22.21-50.41-61.33,4.23-14.1,16.21-15.86,14.1-35.6-1.41-11.99-13.75-28.2-1.41-38.77,8.11-6.7,29.26,0,39.12-3.53,14.1-4.58,24.68-17.62,32.08-29.26,12.34-20.44,9.16-23.26,34.19-26.09,17.98-2.11,32.08-5.99,44.77-19.74,28.55-31.37,9.17-67.68-9.16-97.99-10.57-17.63-33.13-44.06-35.95-64.86-4.23-31.37,23.27-26.44,39.48-37.36,28.2-18.68-5.64-70.15,20.8-87.77,9.52-6.7,41.59-8.81,53.23-8.46,17.98,.35,29.96,13.04,45.47,21.5,16.57,8.81,33.49,9.16,51.81,14.45,18.33,5.64,34.9,11.63,48.64-1.06,7.75-7.05,23.26-28.9,22.21-38.42Z"/><path class="cls-22" d="M1351.34,741.73c15.86,8.11,28.55-19.39,45.47-14.1,10.22,3.17,8.81,12.69,11.63,22.91,2.82,9.87,8.46,19.74,13.4,28.9,9.87,20.09,29.26,31.72,45.47,46.17,16.57,15.16,29.96,25.03,48.64,31.73,2.47,1.06,4.93,2.11,7.75,2.82,7.75,2.47,15.16,5.64,23.62,5.29,8.11-.35,14.45-6.7,21.85-6.7,19.03,0,28.9,29.61,33.84,43.36,8.81,23.26,14.45,33.84,39.83,33.84,16.57,0,24.67,3.88,39.48,10.22,17.62,7.05,36.66,4.23,54.28,11.63,8.81,3.88,15.86,10.58,24.32,15.51,10.93,5.99,22.91,9.52,34.19,14.8,5.99,3.17,11.28,6.7,18.33,8.46,5.29,1.41,15.16,0,18.68,5.29,4.94,7.75-5.29,25.73-8.81,32.78-14.45,29.61-37.72,51.11-54.28,78.6-7.05,11.63-8.11,28.55-16.57,39.12-6.7,8.11-38.77,14.45-38.07,23.26,1.41,16.21-14.1,27.85-16.22,44.77-2.11,14.1-2.47,27.14-5.64,40.89,0,.35-.35,1.06-.35,1.41-8.46,31.73-31.37,27.14-58.51,23.26-15.51-2.11-14.8,5.64-20.8,18.68-5.99,13.04-13.75,24.68-26.08,32.78-32.43,21.85-71.56,36.66-97.29,66.62-14.45,16.92-17.98,40.53-25.38,60.98-5.29,13.39-27.85,32.78-23.97,46.88,13.39,1.41,21.5-6.35,32.43-11.63,11.98-5.99,32.07-11.99,45.12-11.28,34.19,1.06,44.77,48.64,46.53,75.43,1.06,14.45,7.4,23.97,5.29,36.66-.35,2.12-1.06,4.23-1.76,6.35-4.58,11.99-9.52,22.56-4.94,35.25,6.7,18.33,22.91,23.62,21.5,45.12-1.06,16.21-4.94,27.14-20.44,34.19-16.21,7.75-48.29,11.63-58.51,26.79-11.63,16.21,10.93,28.9,24.68,34.54,22.56,9.52,22.91,53.58,26.79,77.55,1.41,10.58,2.82,25.73-1.06,35.95-3.17,8.81-14.8,17.98-11.28,28.9,3.17,9.87,20.8,15.16,29.61,17.62,7.75,2.47,26.79,2.11,32.78,8.46,5.64,5.64,2.82,21.15,1.76,29.26-1.41,8.81-3.88,15.86-8.11,21.85-5.99,8.46-14.8,14.45-26.79,17.62-10.57,3.17-21.5,2.82-31.72,7.05-10.57,4.23-18.33,10.93-26.79,18.33-18.68,16.92-33.14,38.77-53.58,55.34-24.68,19.74-43.36,10.93-73.32,10.93-16.92,0-42.65,11.99-56.75,1.06-11.99-9.17-10.93-15.86-28.2-16.57-14.45-.35-27.14-3.17-41.59-5.64-20.44-3.52-19.74-4.93-22.91-23.62-1.41-8.81,.7-7.75-7.75-10.22-7.4-2.47-17.62,.35-25.03-.7-.35-9.87-.35-27.14-4.58-35.95-9.16-18.68-20.09,4.23-26.79,11.98-9.17,10.58-14.8,9.52-22.91-.7-3.88-4.58-7.4-8.11-9.16-14.8-.7-3.52,.7-10.22-.7-13.04-2.82-5.64-5.64-5.99-11.99-5.64-11.98,1.06-9.16,10.22-16.92,14.8-10.93,6.7-37.01-9.16-43.36-17.98-2.82-3.53-1.76-10.22-5.99-13.04-5.99-3.88-19.74-1.06-25.73-.35-17.62,2.82-31.72,8.81-47.94,15.16-16.21,6.35-24.32,11.63-37.01,21.5-9.17,7.05-21.85,11.63-32.78,14.45-8.11,1.76-17.63,1.76-23.26,8.46-9.52,10.22-7.05,34.19-18.68,41.24-8.11,4.23-14.8,33.84-15.51,44.06-.7,8.46,2.82,14.8,3.17,23.27,.35,7.75-1.06,17.27-3.53,26.08-3.88-.35-7.75-.35-11.28,.35-9.87,2.11-15.51,11.63-25.38,13.39-9.87,1.76-20.8-1.76-29.26-6.35-11.28-5.99-20.8-14.45-31.37-21.85-8.81-5.99-16.57-5.29-27.14-5.29-22.56,0-53.58,.35-59.57-25.38-2.47-9.52-6.35-16.92-15.16-22.56-8.11-5.64-23.97-16.92-32.43-18.68-1.06-7.4-23.26-12.69-30.67-15.51-13.39-5.29-19.74-14.8-30.67-22.91-22.56-17.27-51.46-20.8-78.96-15.16-26.44,5.29-40.54,.7-62.74-12.69-21.15-12.69-34.9-27.85-60.98-26.79-16.57,1.06-24.67,2.11-33.49-11.99-8.11-11.98-20.8-15.51-33.48-21.5-21.85-10.22-42.3-25.73-61.33-40.18-9.16-7.05-12.69-10.93-11.63-23.26,1.06-8.46,5.99-20.44-4.93-24.67-9.52-3.88-21.85,3.17-31.02-2.47-4.94-3.17-6.7-8.81-9.17-14.1,5.29-2.11,10.58-3.88,14.45-5.64,13.04-5.64,25.03-15.16,35.6-24.32,27.49-23.62,38.42-61.33,46.88-95.52,6.7-26.79,14.45-61.33,34.19-82.13,11.28-11.63,46.53-15.51,39.83-34.54-5.64-16.21-22.91-13.39-21.85-33.49,1.06-15.86,12.34-29.96,19.74-43.71,9.87-17.98,11.63-37.72,18.68-56.4,2.12-5.29,3.88-11.99,8.46-15.86,5.29-4.94,16.22-3.88,21.15-9.16,14.45-15.16-6.7-24.32-17.27-32.08-8.46-5.99-16.92-25.73-4.58-31.72,9.16-4.23,31.37,7.4,36.66-5.99,2.82-7.4-3.52-7.05-6.35-11.63-3.88-6.34-1.76-10.93-3.52-17.62-4.94-19.03-36.31-20.09-45.47-38.42-2.47-4.58-5.99-14.8-3.17-20.09,4.58-8.81,22.56-3.17,31.73-.7,5.64,1.41,17.98,9.16,23.26,7.4,13.75-4.58-6.35-15.51-11.99-18.68-14.1-8.46-43.36-14.45-47.59-31.02-5.64-24.68-15.16-54.99-30.67-75.08-10.93-13.39-21.15-27.85-18.68-47.23,14.45-1.76,20.44,11.28,32.78,14.1,.35-10.22-1.41-15.86-6.7-23.97-3.52-5.29-11.63-12.34-9.52-19.39,5.64-19.74,32.43-2.47,40.89,3.52,3.88,2.82,13.75,13.04,19.74,9.16,5.99-4.23,1.06-17.62-1.06-22.21-9.16-18.68-26.09-20.09-44.77-16.92-12.69,2.11-61.68,19.74-59.22-9.17,1.76-18.68,28.9-19.39,26.44-41.59-2.82-27.85-26.09-19.39-45.47-19.39-11.28,0-25.73,.35-34.54-7.75-7.4-6.35-11.28-16.57-19.03-23.26-10.93-9.17-24.32-15.16-37.36-20.8-15.86-7.05-33.49-5.29-43-21.5-7.4-12.34-9.16-20.44-26.08-22.56-15.16-2.11-30.31,3.17-44.41,6.35-3.53-8.11-.35-17.62-2.47-26.09-2.82-9.87-9.52-13.39-14.8-21.15-4.94-7.05-6.35-17.98,.71-25.38,8.46-8.81,18.68-.7,29.26-4.58,20.09-7.05-10.22-49.7-13.04-64.51-1.41-8.81,2.47-17.27,10.22-21.5,23.26-12.34,51.46,9.16,69.79,20.8,8.46,5.64,26.09,19.74,37.01,19.03,9.16-.7,10.93-5.99,16.92-11.98,8.11-8.46,15.16-19.39,23.97-26.79,19.39-16.57,59.92,4.23,75.79,19.74,13.75,13.39,14.8,34.19,29.96,45.47,13.04,9.87,22.91,6.7,38.07,.71,17.63-7.05,27.85-2.82,42.3,8.81,18.68,14.8,18.33,3.88,38.42-.7,20.09-4.58,28.55,16.57,46.17,21.85,13.39,3.88,28.2,3.53,25.73-13.39-3.52-23.62-24.32-38.42-11.28-64.86,5.64-11.63,17.27-17.98,15.86-32.78-2.11-21.15-18.68-38.07-19.74-58.51-.71-9.52,1.06-19.74-.35-29.26-.71-5.29-7.4-15.51-3.88-20.44,7.75-11.99,33.84,17.62,43.71,19.74,17.27,3.52,36.66-13.04,41.95,8.11,3.52,12.69-3.88,38.77,2.47,49,7.4,12.34,37.72,12.69,49.7,17.27,27.49,10.93,54.28,34.19,86.36,29.61,27.49-4.23,37.01-23.26,46.88-46.53,3.88-8.81,6.7-21.85,16.57-26.09,12.34-5.99,31.02-.7,44.77-1.41,10.93-.7,18.68-4.23,28.9-7.4,12.34-4.23,24.68-3.88,37.72-3.88,14.1,0,31.02-3.17,43-9.87,12.34-6.7,17.27-19.39,29.96-23.97,18.33-6.7,25.73-2.47,30.67-26.08,3.52-17.98-2.47-34.54-2.12-52.52,.7-39.83,21.5-66.97,63.1-69.44,28.2-1.76,55.69,2.12,84.24,2.12,6.35,0,14.1-1.41,19.39,.7,1.76,.7,3.52,2.11,4.58,3.88,5.29,8.81-.7,25.38,.7,35.25,2.82,18.68,11.28,22.56,27.85,24.32,14.45,1.41,16.92,8.11,22.21,20.44,5.64,13.04,11.63,25.38,23.26,34.54,5.29,4.58,11.99,8.11,18.33,10.93,7.75,3.53,19.74,3.53,26.44,8.11,6.35,4.23,7.4,13.04,13.39,17.98,6.35,4.94,16.21,5.99,23.26,9.52,12.69,6.35,19.04,20.44,22.56,34.19,3.17,13.04,2.82,41.95,16.92,49.35Z"/></g></g></g><g><path class="cls-3" d="M775.73,357.84c1.5,2.5,2.98,4.48,4.41,6.05"/><path class="cls-6" d="M793.19,369.58c1.6,0,3.89-.02,7.12-.08,2.74,.14,6.52,.75,8.13,3.39,2.15,3.51-1.75,7.07,0,12.19,.98,2.89,3.82,4.86,9.48,8.8,2.84,1.98,6.15,4.28,10.16,6.09,10.27,4.65,20.78,4.1,26.41,3.39,10.65,5.59,18.56,11.05,23.7,14.9,11.28,8.44,16.97,14.88,29.12,20.31,5.88,2.63,10.99,4.01,14.22,4.74,7.67-.23,15.35-.45,23.02-.68,6.09,2.71,12.19,5.42,18.28,8.13,4.2,4.05,9.8,8.85,16.93,13.54,4.4,2.89,12.52,8.16,24.38,12.19,5.44,1.85,12.77,3.81,21.67,4.74,3.61,1.35,7.22,2.71,10.83,4.06,7,12.19,13.99,24.38,20.99,36.56,4.11,6.57,14.14,20.47,32.5,28.44,2.19,.95,4.33,1.75,6.41,2.41"/><path class="cls-3" d="M1103.69,554.59c2.68,.55,5.18,.9,7.41,1.13,1.38,2.09,2.75,4.17,4.13,6.26"/><path class="cls-4" d="M1122.2,572.54c3.3,5,6.59,10,9.89,15,.31,.14,.62,.28,.93,.42"/><path class="cls-3" d="M1138.8,590.55c2.28,1.03,4.56,2.05,6.84,3.08-.53,2.35-1.04,4.8-1.52,7.34"/><path class="cls-2" d="M1141.95,615.97c-.14,1.34-.26,2.69-.38,4.06-1.35,16.51-.34,31,1.35,42.66-4.97,26.41-9.93,52.81-14.9,79.22-19.03,32.12-23.4,57.18-23.7,74.48-.16,9.51,.77,24.67-7.45,41.3-2.64,5.35-5.77,9.92-8.95,13.76"/><path class="cls-3" d="M1082.81,877.05c-1.96,1.94-3.85,3.61-5.56,5.02"/></g><g><rect class="cls-24" width="1920" height="1043.48"/><rect class="cls-5" width="1920" height="1043.48"/></g><g><circle class="cls-20" cx="768.75" cy="345.59" r="9.94"/><circle class="cls-20" cx="1062.1" cy="892.02" r="9.94"/><circle class="cls-20" cx="1135.69" cy="714.3" r="9.94"/><circle class="cls-20" cx="1058.94" cy="526.86" r="9.94"/><circle class="cls-20" cx="871.76" cy="413.31" r="9.94"/></g><g><g><path class="cls-21" d="M193.54,137.91h-4.87l-7.87-13.68h-.11c.16,2.42,.23,4.14,.23,5.17v8.51h-3.43v-18.09h4.84l7.86,13.55h.09c-.12-2.35-.19-4.01-.19-4.99v-8.56h3.45v18.09Z"/><path class="cls-21" d="M98.14,234.88h-4.37l-2.45-9.5c-.09-.34-.25-1.04-.46-2.1-.22-1.06-.34-1.77-.38-2.13-.05,.45-.17,1.16-.37,2.15s-.35,1.69-.46,2.11l-2.44,9.48h-4.36l-4.61-18.09h3.77l2.31,9.87c.4,1.82,.7,3.4,.88,4.74,.05-.47,.16-1.2,.34-2.18s.34-1.75,.5-2.3l2.64-10.13h3.63l2.64,10.13c.12,.45,.26,1.15,.43,2.08,.17,.93,.31,1.73,.4,2.4,.08-.64,.21-1.45,.4-2.41,.18-.96,.35-1.74,.49-2.33l2.3-9.87h3.77l-4.6,18.09Z"/><path class="cls-21" d="M188.17,326.83c0,1.63-.59,2.92-1.76,3.86-1.18,.94-2.81,1.41-4.91,1.41-1.93,0-3.64-.36-5.12-1.09v-3.56c1.22,.54,2.25,.93,3.1,1.15s1.62,.33,2.32,.33c.84,0,1.49-.16,1.94-.48,.45-.32,.67-.8,.67-1.44,0-.35-.1-.67-.3-.95-.2-.28-.49-.54-.87-.8-.38-.26-1.17-.66-2.34-1.22-1.11-.52-1.93-1.02-2.49-1.5-.55-.48-.99-1.03-1.32-1.67-.33-.64-.5-1.38-.5-2.23,0-1.6,.54-2.86,1.63-3.77,1.08-.92,2.58-1.37,4.5-1.37,.94,0,1.84,.11,2.69,.33,.85,.22,1.75,.54,2.68,.94l-1.24,2.98c-.96-.4-1.76-.67-2.39-.83-.63-.16-1.25-.24-1.86-.24-.73,0-1.28,.17-1.67,.51-.39,.34-.58,.78-.58,1.32,0,.34,.08,.63,.24,.88,.16,.25,.41,.5,.75,.73,.34,.24,1.15,.66,2.43,1.27,1.69,.81,2.85,1.62,3.48,2.43,.63,.81,.94,1.81,.94,2.99Z"/><path class="cls-21" d="M284.88,234.88h-10.42v-18.09h10.42v3.14h-6.58v3.97h6.12v3.14h-6.12v4.66h6.58v3.17Z"/></g><g><path class="cls-21" d="M255.58,223.36l-50.18-7.72,18.63-25.41c.87-1.18,.74-2.82-.3-3.86-1.04-1.04-2.67-1.16-3.86-.29l-25.41,18.63-7.72-50.18c-.22-1.45-1.47-2.52-2.94-2.52s-2.71,1.07-2.94,2.52l-7.72,50.18-25.41-18.63c-1.18-.87-2.82-.74-3.86,.29-1.04,1.04-1.16,2.68-.3,3.86l18.63,25.41-50.18,7.72c-1.45,.22-2.52,1.47-2.52,2.94s1.07,2.71,2.52,2.94l50.18,7.72-18.63,25.41c-.87,1.18-.74,2.82,.3,3.86,.58,.58,1.34,.87,2.1,.87,.61,0,1.23-.19,1.76-.58l25.41-18.63,7.72,50.18c.22,1.45,1.47,2.52,2.94,2.52s2.71-1.07,2.94-2.52l7.72-50.18,25.41,18.63c.53,.39,1.14,.58,1.76,.58,.77,0,1.53-.29,2.1-.87,1.04-1.04,1.16-2.68,.29-3.86l-18.63-25.41,50.18-7.72c1.45-.22,2.52-1.47,2.52-2.94s-1.07-2.71-2.52-2.94Zm-47.76,26.94l-11.39-11.39c.21-.21,.4-.44,.6-.66l1.76-.27,9.04,12.33h0Zm-48,0l11.39-11.39c.21,.21,.44,.4,.66,.6l.27,1.76-12.33,9.04h0Zm-27.77-24h33.94c0,1.86,.29,3.66,.82,5.35l-34.76-5.35h0Zm75.77-24l-11.4,11.4c-.21-.21-.43-.42-.66-.63l-.27-1.74,12.33-9.04h0Zm-24,35.89c-6.56,0-11.89-5.32-11.89-11.89,0-5.7,4-10.45,9.35-11.61,.82-.18,1.66-.27,2.53-.27s1.72,.09,2.53,.27c5.35,1.16,9.35,5.92,9.35,11.61,0,6.56-5.32,11.89-11.89,11.89Zm0-29.71c-1.3,0-2.58,.14-3.8,.41-.53,.11-1.04,.25-1.55,.41l5.35-34.76h0v33.94Zm-12.6,5.23c-.21,.21-.42,.43-.62,.65l-1.75,.27-9.04-12.32,11.4,11.4Zm12.6,30.43c1.86,0,3.66-.29,5.35-.82l-5.35,34.76v-33.94Zm17.83-17.83c0-1.62-.22-3.19-.62-4.68l.42-.57,34.15,5.25h-33.94Z"/><path class="cls-21" d="M189.76,226.29c0-2.85-2-5.23-4.68-5.81-.41-.09-.83-.14-1.27-.14s-.86,.05-1.27,.14c-2.67,.58-4.68,2.96-4.68,5.81,0,3.28,2.66,5.94,5.94,5.94s5.94-2.66,5.94-5.94Z"/></g></g><text class="cls-25" transform="translate(980.71 928.64)"><tspan class="cls-10" x="0" y="0">P</tspan><tspan class="cls-8" x="14.41" y="0">aris, </tspan><tspan class="cls-14" x="65.16" y="0">F</tspan><tspan class="cls-13" x="78.59" y="0">r</tspan><tspan class="cls-12" x="87.8" y="0">an</tspan><tspan class="cls-17" x="115.01" y="0">c</tspan><tspan class="cls-15" x="127.07" y="0">e</tspan></text><text class="cls-25" transform="translate(560.08 354.24)"><tspan class="cls-9" x="0" y="0">L</tspan><tspan class="cls-8" x="11.74" y="0">ondon, </tspan><tspan class="cls-18" x="95.42" y="0">E</tspan><tspan class="cls-16" x="109.91" y="0">ngland</tspan></text></g></g></svg>