<?xml version="1.0" encoding="UTF-8"?><svg id="Layer_1" xmlns="http://www.w3.org/2000/svg" xmlns:xlink="http://www.w3.org/1999/xlink" viewBox="0 0 155.28 216.3"><defs><style>.cls-1{fill:none;}.cls-2{clip-path:url(#clippath);}.cls-3{fill:#924142;}.cls-4{fill:#c0bb68;stroke:#968f7d;stroke-miterlimit:10;stroke-width:2px;}</style><clipPath id="clippath"><rect class="cls-1" x="-1900" y="40" width="1840" height="1000"/></clipPath></defs><g class="cls-2"><path class="cls-4" d="M627.68,35.03c7.09,8.11,4.39,26.01-5.41,31.42-6.76,3.72-15.54-3.04-20.27,3.72-15.88,23.65,46.95,34.79,53.37,44.93,4.39,7.77-2.36,23.65,1.69,33.44,7.43,19.59,32.77,26.01,41.21,44.25,3.04,6.42,5.41,14.86,6.42,23.98,4.39,28.04,.68,63.51-14.19,80.74-23.31,27.7-26.69,31.08-.68,62.83,10.47,12.5,27.36,25,27.7,42.9,0,12.5-12.16,24.32-11.49,36.14,1.01,16.89,18.92,34.12,21.28,53.04,2.36,16.55-2.7,27.7-6.76,42.9-7.43,30.06,14.86,52.36,29.05,77.69,5.41,9.8,12.5,23.65,13.85,35.13,2.03,16.21-9.46,24.32-11.15,39.52v1.01c-1.69,20.94,12.84,44.93-22.97,40.53-16.89-2.03-12.84-7.77-19.25-19.93-7.43-13.51-21.28-17.23-35.47-21.62-4.39,28.38-1.69,27.02-31.42,34.79-10.47,2.7-22.97,4.73-32.77,9.12-11.49,5.07-19.59,14.86-30.74,19.93-18.24,8.11-36.15-1.35-52.7,3.38-10.13,3.04-18.92,21.96-30.4,7.77-19.93-.34-43.24,15.2-56.75,28.71-8.45,8.45-8.78,10.13-19.93,13.85-8.78,2.7-21.62,3.04-28.04,10.47-15.2,17.23,3.72,43.58,12.84,59.45,13.51,24.32,16.89,37.84,16.89,65.87-.34,55.4,59.45,39.19,82.42,74.65,7.77,11.82,14.86,23.98,22.29,35.81h.34c4.05,6.42,8.11,12.84,12.5,19.25,7.77,11.15,14.53,25.34,24.66,34.79,6.76,6.76,12.5,6.76,12.84,17.23,.34,22.97-39.52,26.35-52.7,39.86-7.09,7.77-7.43,17.23-13.18,25.67-8.11,12.5-14.52,12.84-28.38,17.57-7.77,2.7-28.04,7.77-32.77,15.88-5.4,9.46,4.39,27.36,7.77,36.82,3.72,9.8,7.43,19.59,8.45,30.4,1.35,12.84-3.38,17.23-5.74,27.7-2.36,11.49,5.41,27.02-11.48,26.69-9.46-.34-17.9-13.85-23.98-18.92-17.57-14.86-37.16-7.77-55.4-18.92-13.51-8.11-11.48-8.78-29.05-4.05-13.17,3.72-25,6.76-38.85,6.76-28.04,.34-47.63,12.16-74.99,16.89-24.32,4.05-48.64,6.08-68.57-9.12-15.88-11.82-30.4-32.43-46.28-13.51-11.15,13.51-22.97,39.86-44.93,36.15-22.29-4.05-26.01-40.54-54.39-45.94-3.72-.68-7.09-1.01-10.47-.68-4.05-8.78-12.16-15.54-23.65-21.62-15.2-8.11-34.12-18.92-51.01-21.62-8.11-1.35-16.89,1.01-25-.68-13.17-3.04-34.46-28.04-48.98-12.84-9.12,9.46,7.43,15.54,3.72,26.01-3.04,8.11-13.85,6.08-21.62,5.74-24.66-.68-48.64-11.15-73.3-10.81-15.88,.34-28.71,.68-40.2-6.08,0-.34,.34-1.01,.34-1.35,3.04-13.17,3.38-25.67,5.4-39.18,2.03-16.21,16.89-27.36,15.54-42.9-.68-8.44,30.06-14.52,36.48-22.29,8.11-10.13,9.12-26.35,15.88-37.49,15.88-26.35,38.17-46.95,52.02-75.33,3.38-6.76,13.17-23.98,8.44-31.42-3.38-5.07-12.84-3.72-17.9-5.07-6.76-1.69-11.82-5.07-17.56-8.11-10.81-5.07-22.29-8.44-32.77-14.19-8.11-4.73-14.86-11.15-23.31-14.86-16.89-7.09-35.13-4.39-52.02-11.15-14.19-6.08-21.96-9.79-37.83-9.79-24.32,0-29.73-10.14-38.17-32.43-4.73-13.17-14.19-41.55-32.43-41.55-7.09,0-13.17,6.08-20.94,6.42-8.11,.34-15.2-2.7-22.63-5.07-2.7-.68-5.07-1.69-7.43-2.7,1.01-3.04,2.36-6.08,3.72-8.78,10.81-20.27,34.79-14.19,46.28-29.05,21.62-28.38-65.53-62.83-4.05-73.98,34.46-6.42,56.75-35.13,49.99-70.94-3.72-19.25-12.16-34.46-21.62-49.66-8.78-14.52-8.45-26.01-11.15-40.2,9.46-9.12,18.58-18.58,26.01-29.39,17.9-25.67,24.32-52.36,21.62-83.78-1.01-10.13-7.43-28.38-2.7-37.83,4.39-9.12,7.09-6.42,16.55-7.09,28.37-2.03,52.36-2.03,74.65-24.66,13.51-13.85,25-41.21,20.61-60.81-3.38-13.51-22.63-29.39-11.15-43.91,4.39-5.07,16.21-6.42,22.29-9.8,12.5-6.08,20.61-15.88,29.05-27.02,12.84-16.89,15.2-35.47,8.11-55.06-1.01-3.04-2.03-6.08-3.38-9.46v-.34c4.05-.68,7.09-2.7,8.78-8.11,5.4-16.89-15.88-27.7-14.19-43.24,.68-8.11,10.81-10.13,12.5-17.56,2.03-7.77-6.42-12.16-5.07-18.92,2.7-11.15,25.67-6.42,38.85-6.42,13.85,0,43.24-6.42,55.06,0,11.82,6.76,10.47,31.08,15.2,42.22,5.74,12.5,17.23,22.29,32.09,18.24,18.24-4.73,12.16-28.71,20.61-42.9,17.57-30.74,71.61,3.38,85.8-19.25,5.74-8.78-9.12-28.04-9.12-38.17-.34-18.58,.68-21.96-12.5-35.47C34.83,19.49,14.9,6.65,42.94-.1c6.08-1.35,17.57,3.04,22.29-1.35,7.43-6.76,.68-22.63-3.04-30.06-6.76-12.16-18.58-19.93-21.28-33.78-1.69-7.43-1.69-13.85,0-18.92,3.72-13.18,16.89-18.24,36.14-15.2,25,4.05,42.23,24.32,67.56,27.36,5.4,.68,10.13,1.01,14.19,1.69,15.88,2.7,22.97,8.11,17.9,31.42-4.05,20.27-5.07,30.06,19.93,36.82,9.8,2.7,20.94,2.7,29.05,8.78,5.07,3.72,6.76,11.82,11.82,15.2,13.51,8.45,30.74-2.7,46.28,.34,10.47,2.03,37.83,15.2,38.17,24.32,0,22.97-41.21,26.69-42.9,47.63-2.03,26.35,25,8.78,39.86,8.11,7.77-.34,13.51,4.39,20.61,4.39,16.89,.34,22.29-10.14,32.77-22.29,23.98-28.71,41.55-11.49,73.98-15.54,24.66-3.38,39.86-29.73,65.19-28.71,22.97,1.01,39.19,19.93,42.9-15.54,.68-7.09-3.04-20.61,1.35-26.35,6.42-8.45,32.77-7.43,41.21-2.03,11.82,7.77,3.72,11.48,8.44,22.63,4.73,11.48,15.88,8.11,22.3,16.21Z"/></g><path class="cls-3" d="M155.28,77.64C155.28,34.76,120.52,0,77.64,0S0,34.76,0,77.64c0,14.94,4.29,28.84,11.6,40.68,22,32.66,44.01,65.32,66.01,97.98,22.02-32.66,44.04-65.32,66.06-97.98,7.31-11.84,11.6-25.74,11.6-40.68ZM77.64,41.38c20.02,0,36.26,16.23,36.26,36.26s-16.23,36.26-36.26,36.26-36.26-16.23-36.26-36.26,16.23-36.26,36.26-36.26Z"/></svg>