<?xml version="1.0" encoding="UTF-8"?><svg id="Layer_1" xmlns="http://www.w3.org/2000/svg" xmlns:xlink="http://www.w3.org/1999/xlink" viewBox="0 0 1920 1043.48"><defs><style>.cls-1{fill:none;}.cls-2{clip-path:url(#clippath);}.cls-3{fill:#8195a2;}.cls-4{fill:#527486;}.cls-5{fill:#c0bb68;stroke:#968f7d;stroke-miterlimit:10;stroke-width:2px;}</style><clipPath id="clippath"><rect class="cls-1" x="-1940" width="1920" height="1043.48"/></clipPath></defs><g class="cls-2"><g><path class="cls-5" d="M1916.83,1251.78c-20.09-30.31-42.65-57.81-83.19-62.39-5.99-.7-11.99-.7-17.98-.35,.7-5.99,1.41-11.63,1.76-17.27,2.47-28.9,16.21-49.35,32.43-72.26,9.16-12.34,18.33-26.08,18.68-40.54,2.47-.35,4.93-1.06,7.4-1.41,44.06-8.46,14.1-55.69,17.98-92.35,5.29-47.23,36.66-86.01,72.61-115.26,41.24-33.49,106.45-68.03,79.66-134.3-6.7-16.21-23.97-30.31-32.43-45.47-10.22-17.98-17.62-39.12-27.85-57.81-8.46-15.16-18.33-29.26-24.32-45.47,29.96-3.88,58.16-13.39,82.13-32.78,36.31-28.9,62.39-59.22,109.62-72.26,29.26-8.11,68.03-10.93,97.28-1.41,39.83,12.69,64.51,38.77,110.68,34.9,47.23-3.88,81.78-32.43,129.72-21.5,27.49,6.35,40.18,17.98,69.44,18.33,18.33,0,38.07,1.41,56.4-1.41,41.95-6.7,73.32-3.88,115.97,4.23,41.59,7.75,116.32,37.01,152.98,1.41,32.07-31.37,1.41-78.96,35.25-109.98,28.9-26.44,97.64-19.03,101.87-66.62,0-.7,0-1.76,.35-2.47,20.44,7.05,46.88,11.63,57.46,4.23,20.8-14.45,3.88-58.87,30.31-70.15,9.87-4.23,22.56,3.88,33.84,4.23,15.86,0,23.26-5.64,35.95-13.39,24.32-15.16,50.05-19.39,78.96-16.57,14.45,1.06,32.43,5.64,44.06,15.16,12.34,10.22,11.99,23.26,19.74,36.66,8.81,15.16,22.91,16.21,33.84,28.2,8.46,9.16,9.87,21.15,13.04,32.78,5.29,21.5,9.17,65.56,33.14,72.61,11.98,3.88,26.08-5.29,37.72-5.99,16.22-.7,25.38,3.53,38.77,11.99,27.14,16.57,41.95,39.83,57.1,66.62,7.75,13.75,17.62,31.37,29.96,41.24,17.98,14.1,27.14,6.7,45.82,3.88,19.39-2.82,47.23-2.82,65.91,2.11,16.92,4.94,27.85,16.21,46.88,14.1,34.19-4.23,40.89-42.65,74.02-48.29,45.12-7.05,66.27,15.86,100.46,40.89,46.18,33.13,86.01,12.69,137.82,9.16,23.62-1.41,51.46-6.35,73.32,3.88,20.09,9.52,32.07,21.85,53.58,26.44,39.83,8.81,114.56,15.51,105.75,72.61-2.47,16.92-10.58,28.55-10.22,46.53,.7,35.95,22.91,69.44,34.19,102.57,7.75,23.26,15.16,48.64,17.27,72.96,2.82,29.61-15.16,38.77-41.24,50.05-56.75,23.62-148.05,56.05-149.81,131.83-.7,23.97,7.4,31.02-7.75,52.17-3.17,4.58-6.7,8.81-10.57,12.34-19.03,20.09-42.3,30.31-65.56,46.53-11.28,8.11-61.68,55.69-71.91,38.78-47.59-3.17-62.39,48.29-95.88,65.91-22.21,11.63-55.69,5.99-75.78,21.5-9.52,7.4-8.81,15.51-15.86,24.32-9.16,11.63-8.11,5.64-21.85,9.87-28.55,8.46-31.02,19.04-44.06,44.06-10.93,21.5-27.85,33.49-52.17,35.95-37.72,3.53-81.07-8.46-117.38,1.41-13.75,3.88-22.56,11.99-31.02,20.8-5.29,5.29-10.22,10.93-16.22,15.86-16.57,13.39-38.07,11.63-59.92,11.63-49.35,0-109.63,22.56-158.62,5.29-9.16-3.17-22.91-11.99-24.32-23.27-1.41-13.04,5.64-12.34,13.75-21.85,21.15-25.38,9.52-41.59-17.62-57.46-19.39-11.63-39.48-13.75-58.87,1.41-13.75,11.28-24.32,47.58-48.29,34.54-17.63-9.87-22.91-88.12-45.47-44.77-12.34,23.97-19.39,63.8-13.04,90.24,4.58,17.27,22.91,45.82,1.06,59.92-19.74,12.69-43-13.75-63.8-9.87-5.29,23.26,.35,43.36,3.53,65.21,4.23,28.2-10.22,38.77-37.01,52.17-15.86,7.75-38.42,15.16-31.73,38.78,3.53,13.04,17.98,17.27,19.04,31.72,.7,9.16-3.53,17.27-9.52,23.97-25.03-37.01-60.27-16.21-96.93,4.94-36.31,21.15-67.68,20.44-91.3-2.12,2.47-12.69,4.94-25.38,9.52-35.25,13.04-27.49,37.01-47.59,53.58-72.97,10.22-16.21,17.62-33.13,16.92-52.52-.35-13.39-10.93-32.43-9.52-44.41,2.47-21.15,6.35-6.7,19.04-7.05,14.1,0,20.09-8.11,33.13-11.28,16.22-3.88,39.48,0,56.4,.35,28.9,0,38.07-2.82,30.67-32.78-4.93-20.8-9.52-43.71-28.2-54.63-18.33-10.93-41.59-10.58-54.28-30.31-12.34-19.74,0-44.77-14.8-61.69-16.92-19.04-38.42-11.99-49-38.77-13.75-34.19,7.05-72.26-28.55-93.06-38.77-22.56-75.43-2.11-114.91-9.16-35.25-5.99-60.28-40.54-97.29-45.82-20.09-2.82-34.9,5.29-53.22,11.28-18.68,5.64-34.54,5.64-54.28,5.99-33.84,.35-36.31,17.98-38.42,38.77-32.43,0-52.52,24.67-77.2,45.82-29.61,24.67-69.79,48.29-106.8,60.28-47.58,15.51-60.98-12.34-102.93-21.85-29.61-7.05-70.85,.7-102.93-2.82-29.96-3.17-63.45-1.41-93.41-2.82-12.34-.7-32.78-3.52-44.06,0-3.88,1.06-6.35,2.11-8.46,2.82Z"/><path class="cls-5" d="M1918.94,92.1c-13.04-31.02-30.67-58.51-55.69-74.73v-2.82c.7-14.1,6.7-35.6,1.41-49-5.64-14.45-21.15-15.16-31.02-25.02-12.69-12.34-13.39-32.43-24.32-46.53-23.26-30.31-52.87-21.5-84.6-15.16-27.85,5.64-49.35-4.23-72.96-18.68-8.11-4.94-15.51-9.16-22.21-11.28v-.35c-1.76-10.58-4.94-19.39-10.57-32.43-9.87-22.21-3.17-46.88-13.04-68.74-11.63-26.09-30.67-50.41-14.45-73.32,2.11-3.17,5.64-6.7,9.87-10.22,27.85-22.21,55.34-47.58,90.59-51.11,40.18-3.88,83.19,3.17,123.37-2.47,21.85-2.82,40.54-13.75,63.8-13.75s43.71,10.57,66.27,11.63c51.46,2.11,56.75-72.61,106.1-18.68,9.87,10.57,4.93,12.34,20.8,16.21,10.93,2.82,23.62-1.41,35.25,0,28.2,4.23,34.54,25.03,57.81,39.13,19.39,11.63,43,15.86,60.98,29.96,8.11,6.35,16.92,15.51,22.91,24.68,1.06,1.41,2.12,2.82,2.82,4.23,5.64,10.22,4.23,23.26,9.16,32.43,11.98,21.85,35.6,29.61,16.21,59.92-18.68,29.96-59.92,26.79-80.72,49-34.19,37.01,3.88,115.97-3.17,157.21-11.28,3.53-25.03,4.58-37.36,3.17-10.57-1.06-30.67-10.57-41.24-4.58-10.93,5.64-15.51,28.9-22.91,40.54-9.16,14.1-22.56,26.79-37.72,33.84-27.49,12.69-59.57,4.94-89.88,7.05-16.92,1.06-31.37,5.99-45.47,9.87Z"/><path class="cls-5" d="M2153.35,461.86c-47.23,13.04-73.32,43.36-109.62,72.26-23.97,19.39-52.17,28.9-82.13,32.78-2.47-5.99-4.23-11.98-4.94-18.68-2.47-19.39,1.76-39.48-.7-58.86-4.58-44.06-75.43-60.63-26.08-98.35,35.6-27.49,79.31-26.08,77.55-81.78-1.06-52.17-48.64-73.67-59.92-121.26-6.7-29.26-15.16-64.15-28.55-95.88,14.1-3.88,28.55-8.81,45.47-9.87,30.31-2.11,62.39,5.64,89.88-7.05,15.16-7.05,28.55-19.74,37.72-33.84,7.4-11.63,11.99-34.9,22.91-40.54,10.57-5.99,30.67,3.53,41.24,4.58,12.34,1.41,26.08,.35,37.36-3.17,7.05-41.24-31.02-120.2,3.17-157.21,20.8-22.21,62.04-19.03,80.72-49,19.39-30.31-4.23-38.07-16.21-59.92-4.94-9.16-3.53-22.21-9.16-32.43-.7-1.41-1.76-2.82-2.82-4.23,7.05-19.04,14.1-38.78,39.48-44.41,18.68-3.88,37.01,4.93,53.93-6.7,20.44-14.1,21.85-36.66,44.41-50.41,10.93-6.7,21.15-9.52,31.37-9.87,28.9-2.11,56.05,13.39,87.77,5.99,20.8-5.29,42.65-17.98,66.27-11.63,22.91,6.35,33.13,26.09,61.68,24.67,25.38-1.41,38.07-15.16,64.15-9.52,21.85,4.58,40.89,16.21,58.16,31.37,20.09,17.27,19.04,29.61,27.85,53.58,7.4,19.74,25.38,34.54,27.49,53.93,3.17,30.31-45.12,69.44-33.84,91.65,10.58,20.44,64.15,26.09,82.13,50.76,16.57,22.56,21.5,44.77,47.94,57.1,11.63,5.64,23.26,4.94,33.49,9.17,16.57,7.4,18.33,17.98,30.31,26.79,37.72,28.2,121.61,13.04,108.57,91.3-4.93,30.67-17.98,63.45-51.11,66.62-30.31,2.47-54.28-22.56-84.24-17.98-17.63,45.47,27.14,65.56,46.17,100.81,12.34,22.56,32.78,78.25,32.08,104.69-.35,.7-.35,1.76-.35,2.47-4.23,47.59-72.96,40.18-101.87,66.62-33.84,31.02-3.17,78.6-35.25,109.98-36.66,35.6-111.39,6.35-152.98-1.41-42.65-8.11-74.02-10.93-115.97-4.23-18.33,2.82-38.07,1.41-56.4,1.41-29.26-.35-41.95-11.98-69.44-18.33-47.94-10.93-82.48,17.62-129.72,21.5-46.17,3.88-70.85-22.21-110.68-34.9-29.26-9.52-68.03-6.7-97.28,1.41Z"/><path class="cls-5" d="M1686.3,1160.84c-21.85,2.12-38.77-2.82-59.92-4.93-15.86-1.41-42.65,2.11-54.28,13.75-10.22,10.22-8.46,28.2-17.62,39.48-19.04,23.97-50.76,15.16-77.55,15.16-17.27,0-22.21-1.06-33.49,11.28-11.98,12.69-21.85,23.62-39.48,28.9-28.9,8.46-62.39,3.17-74.73,38.07-5.99,16.92-7.4,23.26-27.49,25.03-18.68,1.76-40.18,1.76-58.51,0-34.55-3.17-69.44-24.32-101.52-36.66-14.1-5.29-26.44-9.87-38.07-19.74-5.99-4.93-13.39-11.28-20.8-17.27-4.23-33.49,.35-68.38,1.06-102.57,5.99-4.94,11.28-10.58,15.16-16.57,9.16-13.75,8.81-24.67,25.03-31.72,37.01-16.21,85.3,10.22,114.56-29.61,21.85-29.61,11.98-60.98,49.7-81.78,21.85-11.99,39.48-8.81,58.51-5.29,9.52,1.76,19.74,3.52,30.67,3.88,33.49,.35,57.1-38.77,92.7-6.7,10.93,9.52,12.69,28.9,26.79,36.31,20.09,10.22,39.12-6.35,56.04-14.8,18.68-9.52,32.78-7.4,54.28-8.46,27.14-1.41,53.93-11.28,81.07-14.8,17.27-2.47,38.07-4.23,55.69-2.12,27.49,3.53,40.54,22.91,63.1,35.6,17.62,10.22,44.77,6.34,56.05,24.67,3.88,6.7,5.29,13.04,5.29,19.03-.35,14.45-9.52,28.2-18.68,40.54-16.21,22.91-29.96,43.36-32.43,72.26-.35,5.64-1.06,11.28-1.76,17.27-10.93,1.06-22.21,2.82-33.14,1.76-20.8-1.06-34.19-10.93-51.81-21.85-15.86-10.22-25.73-9.87-44.41-8.11Z"/><path class="cls-5" d="M1465.64-52.07c-5.64-21.85-.35-47.94,24.67-50.05,26.44-2.47,48.64,23.26,76.14,20.44,29.26-3.52,20.44-28.55,29.26-50.76,8.11-20.8,19.74-23.97,33.84-19.03v.35c6.7,2.12,14.1,6.35,22.21,11.28,23.61,14.45,45.12,24.32,72.96,18.68,31.72-6.35,61.33-15.16,84.6,15.16,10.93,14.1,11.63,34.19,24.32,46.53,9.87,9.87,25.38,10.57,31.02,25.02,5.29,13.39-.7,34.9-1.41,49v2.82c-20.09-13.75-44.77-20.09-75.79-14.8-40.89,7.05-81.78,19.39-124.78,20.8-52.52,1.76-100.46-20.44-152.27-20.8-32.78,0-51.46,31.72-77.19,37.36,4.58-15.86,15.86-29.61,27.49-38.77,29.61-22.21,13.04-21.85,4.94-53.23Z"/><path class="cls-5" d="M1004.59,787.56c5.64-11.98,20.8-19.74,16.57-35.95-4.93-17.27-28.55-9.87-44.77-11.28-31.37-3.17-63.45-8.81-88.47-28.2-17.98-14.1-40.54-22.56-60.28-35.25v-1.06c1.76-15.86,13.75-24.32,11.63-41.24-1.41-11.99-8.81-26.44-14.45-36.66-14.8-26.44-38.07-49.7-30.31-81.07,4.23-15.86,9.52-27.49,7.05-44.77-2.47-19.74-21.15-37.72-22.21-55.34-.7-12.34,11.99-24.67,11.99-37.72-.35-18.68-17.98-31.73-28.9-44.77-27.14-33.13-23.62-36.66,.7-65.56,15.51-17.98,19.39-54.99,14.8-84.25,10.58-8.11,20.09-18.33,30.31-35.6,18.33-31.02,45.47-57.46,81.42-69.79,18.68-6.34,39.48-5.64,56.75-13.75,20.8-9.52,38.42-26.79,56.4-40.18,30.31-22.56,64.51-43,99.75-56.05,38.07-14.45,84.24-24.67,125.48-20.44,46.88,4.94,55.69,34.54,90.59,58.16,15.51,10.58,32.78,6.35,49.35,10.58,16.92,4.58,25.73,14.1,41.59,20.44,8.81,3.53,16.21,3.88,23.62,2.12,25.73-5.64,44.41-37.36,77.19-37.36,51.82,.35,99.75,22.56,152.27,20.8,43-1.41,83.89-13.75,124.78-20.8,31.02-5.29,55.69,1.06,75.79,14.8,25.03,16.21,42.65,43.71,55.69,74.73,13.39,31.72,21.85,66.62,28.55,95.88,11.28,47.59,58.87,69.09,59.92,121.26,1.76,55.69-41.95,54.28-77.55,81.78-49.35,37.72,21.5,54.28,26.08,98.35,2.47,19.39-1.76,39.48,.7,58.86,.71,6.7,2.47,12.69,4.94,18.68,5.99,16.21,15.86,30.31,24.32,45.47,10.22,18.68,17.62,39.83,27.85,57.81,8.46,15.16,25.73,29.26,32.43,45.47,26.79,66.27-38.42,100.81-79.66,134.3-35.95,29.26-67.33,68.03-72.61,115.26-3.88,36.66,26.09,83.89-17.98,92.35-2.47,.35-4.93,1.06-7.4,1.41,0-5.99-1.41-12.34-5.29-19.03-11.28-18.33-38.42-14.45-56.05-24.67-22.56-12.69-35.6-32.08-63.1-35.6-17.63-2.11-38.42-.35-55.69,2.12-27.14,3.52-53.93,13.39-81.07,14.8-21.5,1.06-35.6-1.06-54.28,8.46-16.92,8.46-35.95,25.03-56.04,14.8-14.1-7.4-15.86-26.79-26.79-36.31-35.6-32.07-59.22,7.05-92.7,6.7-10.93-.35-21.15-2.12-30.67-3.88-1.41-16.57-3.53-30.31-14.45-46.53-19.39-27.85-45.12-46.18-76.14-58.87-9.52-4.23-31.37-8.46-39.13-16.21-8.11-8.46-4.58-22.56-9.52-31.72-11.28-20.09-39.48-2.82-57.81-11.99-19.04-9.87-22.91-32.78-51.11-28.9-3.53,11.63,11.63,34.19,3.52,44.41-1.06,1.41-17.62,4.94-20.09,5.64-11.28,3.53-20.8,5.29-32.78,4.58-23.97-1.41-56.4-33.84-44.77-59.22Z"/><path class="cls-5" d="M713.79,712.12c31.02-8.11,28.2-6.7,32.78-36.31,14.8,4.58,29.26,8.46,37.01,22.56,6.7,12.69,2.47,18.68,20.09,20.8,37.36,4.58,22.21-20.44,23.97-42.3,19.74,12.69,42.3,21.15,60.28,35.25,25.03,19.39,57.1,25.03,88.47,28.2,16.21,1.41,39.83-5.99,44.77,11.28,4.23,16.21-10.93,23.97-16.57,35.95-11.63,25.38,20.8,57.81,44.77,59.22,11.99,.7,21.5-1.06,32.78-4.58,2.47-.7,19.04-4.23,20.09-5.64,8.11-10.22-7.05-32.78-3.52-44.41,28.2-3.88,32.07,19.04,51.11,28.9,18.33,9.17,46.53-8.11,57.81,11.99,4.93,9.16,1.41,23.26,9.52,31.72,7.75,7.75,29.61,11.99,39.13,16.21,31.02,12.69,56.75,31.02,76.14,58.87,10.93,16.21,13.04,29.96,14.45,46.53-19.04-3.53-36.66-6.7-58.51,5.29-37.72,20.8-27.85,52.17-49.7,81.78-29.26,39.83-77.55,13.39-114.56,29.61-16.21,7.05-15.86,17.98-25.03,31.72-3.88,5.99-9.16,11.63-15.16,16.57,0-7.4,0-14.8-.35-21.85-38.07-5.64-70.85-19.04-110.68-19.04-22.21,0-46.53,2.82-67.68-2.11-22.21-5.29-40.54-19.39-62.74-23.97-7.4-1.76-26.44-7.05-33.84-3.17-7.4,3.88-4.58,12.69-10.58,18.68-10.57,10.57-24.32,32.43-35.95,41.24-27.14,19.74-81.43-3.17-103.63-20.8-26.08-20.44-36.31-54.28-66.27-64.86h-.35c-7.75-12.34-15.16-25.03-23.26-37.36-23.97-37.01-86.36-20.09-86.01-77.9,0-29.26-3.52-43.36-17.62-68.74-9.52-16.57-29.26-44.06-13.39-62.04,6.7-7.75,20.09-8.11,29.26-10.93,11.63-3.88,11.99-5.64,20.8-14.45,14.1-14.1,38.42-30.31,59.22-29.96,11.99,14.8,21.15-4.93,31.73-8.11,17.27-4.94,35.95,4.94,54.99-3.53,11.63-5.29,20.09-15.51,32.08-20.8,10.22-4.58,23.26-6.7,34.19-9.52Z"/><path class="cls-5" d="M697.57-5.19c7.4,8.46,4.58,27.14-5.64,32.78-7.05,3.88-16.21-3.17-21.15,3.88-16.57,24.67,49,36.31,55.69,46.88,4.58,8.11-2.47,24.68,1.76,34.9,7.75,20.44,34.19,27.14,43,46.18,3.17,6.7,5.64,15.51,6.7,25.03,4.58,29.26,.7,66.27-14.8,84.25-24.32,28.9-27.85,32.43-.7,65.56,10.93,13.04,28.55,26.09,28.9,44.77,0,13.04-12.69,25.38-11.99,37.72,1.06,17.63,19.74,35.6,22.21,55.34,2.47,17.27-2.82,28.9-7.05,44.77-7.75,31.37,15.51,54.64,30.31,81.07,5.64,10.22,13.04,24.67,14.45,36.66,2.12,16.92-9.87,25.38-11.63,41.24v1.06c-1.76,21.85,13.39,46.88-23.97,42.3-17.62-2.11-13.4-8.11-20.09-20.8-7.75-14.1-22.21-17.98-37.01-22.56-4.58,29.61-1.76,28.2-32.78,36.31-10.93,2.82-23.97,4.94-34.19,9.52-11.99,5.29-20.45,15.51-32.08,20.8-19.03,8.46-37.72-1.41-54.99,3.53-10.58,3.17-19.74,22.91-31.73,8.11-20.8-.35-45.12,15.86-59.22,29.96-8.81,8.81-9.17,10.57-20.8,14.45-9.16,2.82-22.56,3.17-29.26,10.93-15.86,17.98,3.88,45.47,13.39,62.04,14.1,25.38,17.62,39.48,17.62,68.74-.35,57.81,62.04,40.89,86.01,77.9,8.11,12.34,15.51,25.03,23.26,37.36h.35c4.23,6.7,8.46,13.39,13.04,20.09,8.11,11.63,15.16,26.44,25.73,36.31,7.05,7.05,13.04,7.05,13.39,17.98,.35,23.97-41.24,27.49-54.99,41.59-7.4,8.11-7.75,17.98-13.75,26.79-8.46,13.04-15.16,13.39-29.61,18.33-8.11,2.82-29.26,8.11-34.19,16.57-5.64,9.87,4.58,28.55,8.11,38.42,3.88,10.22,7.75,20.44,8.81,31.72,1.41,13.39-3.53,17.98-5.99,28.9-2.47,11.99,5.64,28.2-11.98,27.85-9.87-.35-18.68-14.45-25.03-19.74-18.33-15.51-38.77-8.11-57.81-19.74-14.1-8.46-11.98-9.16-30.31-4.23-13.75,3.88-26.08,7.05-40.54,7.05-29.26,.35-49.7,12.69-78.25,17.63-25.38,4.23-50.76,6.35-71.56-9.52-16.57-12.34-31.72-33.84-48.29-14.1-11.63,14.1-23.97,41.59-46.88,37.72-23.26-4.23-27.14-42.3-56.75-47.94-3.88-.7-7.4-1.06-10.93-.7-4.23-9.16-12.69-16.21-24.67-22.56-15.86-8.46-35.6-19.74-53.22-22.56-8.46-1.41-17.63,1.06-26.09-.7-13.75-3.17-35.95-29.26-51.11-13.39-9.52,9.87,7.75,16.21,3.88,27.14-3.17,8.46-14.45,6.35-22.56,5.99-25.73-.7-50.76-11.63-76.49-11.28-16.57,.35-29.96,.7-41.95-6.35,0-.35,.35-1.06,.35-1.41,3.17-13.75,3.52-26.79,5.64-40.89,2.12-16.92,17.63-28.55,16.22-44.77-.7-8.81,31.37-15.16,38.07-23.26,8.46-10.57,9.52-27.49,16.57-39.12,16.57-27.49,39.83-49,54.28-78.6,3.52-7.05,13.75-25.03,8.81-32.78-3.52-5.29-13.39-3.88-18.68-5.29-7.05-1.76-12.34-5.29-18.33-8.46-11.28-5.29-23.26-8.81-34.19-14.8-8.46-4.93-15.51-11.63-24.32-15.51-17.62-7.4-36.66-4.58-54.28-11.63-14.81-6.34-22.91-10.22-39.48-10.22-25.38,0-31.02-10.58-39.83-33.84-4.94-13.75-14.8-43.36-33.84-43.36-7.4,0-13.75,6.35-21.85,6.7-8.46,.35-15.86-2.82-23.62-5.29-2.82-.7-5.29-1.76-7.75-2.82,1.06-3.17,2.47-6.35,3.88-9.17,11.28-21.15,36.31-14.8,48.29-30.31,22.56-29.61-68.38-65.56-4.23-77.19,35.95-6.7,59.22-36.66,52.17-74.02-3.88-20.09-12.69-35.95-22.56-51.82-9.16-15.16-8.81-27.14-11.63-41.95,9.87-9.52,19.39-19.39,27.14-30.67,18.68-26.79,25.38-54.64,22.56-87.42-1.06-10.57-7.75-29.61-2.82-39.48,4.58-9.52,7.4-6.7,17.27-7.4,29.61-2.12,54.63-2.12,77.9-25.73,14.1-14.45,26.09-43,21.5-63.45-3.53-14.1-23.62-30.67-11.63-45.82,4.58-5.29,16.92-6.7,23.26-10.22,13.04-6.35,21.5-16.57,30.31-28.2,13.39-17.63,15.86-37.01,8.46-57.46-1.06-3.17-2.11-6.34-3.53-9.87v-.35c4.23-.71,7.4-2.82,9.17-8.46,5.64-17.62-16.57-28.9-14.8-45.12,.7-8.46,11.28-10.57,13.04-18.33,2.11-8.11-6.7-12.69-5.29-19.74,2.82-11.63,26.79-6.7,40.54-6.7,14.45,0,45.12-6.7,57.46,0,12.34,7.05,10.93,32.43,15.86,44.06,5.99,13.04,17.98,23.26,33.49,19.04,19.04-4.94,12.69-29.96,21.5-44.77,18.33-32.07,74.73,3.53,89.53-20.09,5.99-9.16-9.52-29.26-9.52-39.83-.35-19.39,.7-22.91-13.04-37.01-11.28-11.28-32.07-24.67-2.82-31.72,6.35-1.41,18.33,3.17,23.26-1.41,7.75-7.05,.71-23.62-3.17-31.37-7.05-12.69-19.39-20.8-22.21-35.25-1.76-7.75-1.76-14.45,0-19.74,3.88-13.75,17.62-19.04,37.72-15.86,26.08,4.23,44.06,25.38,70.5,28.55,5.64,.71,10.57,1.06,14.8,1.76,16.57,2.82,23.97,8.46,18.68,32.78-4.23,21.15-5.29,31.37,20.8,38.42,10.22,2.82,21.85,2.82,30.31,9.16,5.29,3.88,7.05,12.34,12.34,15.86,14.1,8.81,32.08-2.82,48.29,.35,10.93,2.11,39.48,15.86,39.83,25.38,0,23.97-43,27.85-44.77,49.7-2.11,27.49,26.09,9.17,41.59,8.46,8.11-.35,14.1,4.58,21.5,4.58,17.62,.35,23.26-10.58,34.19-23.26,25.03-29.96,43.36-11.99,77.2-16.22,25.73-3.52,41.59-31.02,68.03-29.96,23.97,1.06,40.89,20.8,44.77-16.21,.7-7.4-3.17-21.5,1.41-27.49,6.7-8.81,34.19-7.75,43-2.11,12.34,8.11,3.88,11.98,8.81,23.62,4.94,11.98,16.57,8.46,23.27,16.92Z"/></g></g><g><rect class="cls-4" y="554.8" width="1920" height="37.05"/><rect class="cls-3" y="554.8" width="1920" height="10.96"/><rect class="cls-3" y="583.37" width="1920" height="8.48"/></g></svg>